<svg xmlns="http://www.w3.org/2000/svg" xmlns:xlink="http://www.w3.org/1999/xlink" width="500" zoomAndPan="magnify" viewBox="0 0 375 374.999991" height="500" preserveAspectRatio="xMidYMid meet" version="1.0"><defs><clipPath id="dcea19afbb"><path d="M 123.65625 103 L 251.15625 103 L 251.15625 272.730469 L 123.65625 272.730469 Z M 123.65625 103 " clip-rule="nonzero"/></clipPath><clipPath id="60956af68b"><path d="M 1 38 L 354.75 38 L 354.75 310 L 1 310 Z M 1 38 " clip-rule="nonzero"/></clipPath></defs><g clip-path="url(#dcea19afbb)"><path fill="#a15950" d="M 239.039062 151.34375 L 245.148438 151.34375 C 243.269531 166.371094 235.1875 231.21875 231.878906 257.75 C 231.242188 262.851562 226.917969 266.683594 221.792969 266.683594 C 204.417969 266.683594 171.578125 266.683594 154.203125 266.683594 C 149.078125 266.683594 144.753906 262.851562 144.113281 257.75 C 144.113281 257.75 130.847656 151.34375 130.847656 151.34375 C 130.847656 151.34375 225.726562 151.34375 225.726562 151.34375 C 227.265625 151.34375 228.519531 150.085938 228.519531 148.546875 C 228.519531 147 227.265625 145.75 225.726562 145.75 L 127.6875 145.75 C 126.890625 145.75 126.125 146.09375 125.597656 146.695312 C 125.066406 147.292969 124.820312 148.09375 124.917969 148.890625 C 124.917969 148.890625 134.824219 228.335938 138.582031 258.441406 C 139.5625 266.347656 146.261719 272.277344 154.203125 272.277344 C 171.578125 272.277344 204.417969 272.277344 221.792969 272.277344 C 229.734375 272.277344 236.429688 266.347656 237.417969 258.441406 C 241.171875 228.335938 251.074219 148.890625 251.074219 148.890625 C 251.175781 148.09375 250.929688 147.292969 250.398438 146.695312 C 249.867188 146.09375 249.105469 145.75 248.304688 145.75 L 239.039062 145.75 C 237.496094 145.75 236.246094 147 236.246094 148.546875 C 236.246094 150.085938 237.496094 151.34375 239.039062 151.34375 Z M 185.203125 178.777344 L 185.203125 239.246094 C 185.203125 240.785156 186.457031 242.042969 187.996094 242.042969 C 189.535156 242.042969 190.785156 240.785156 190.785156 239.246094 L 190.785156 178.777344 C 190.785156 177.234375 189.535156 175.976562 187.996094 175.976562 C 186.457031 175.976562 185.203125 177.234375 185.203125 178.777344 Z M 153 179.113281 L 157.957031 239.375 C 158.085938 240.910156 159.433594 242.054688 160.964844 241.929688 C 162.503906 241.800781 163.644531 240.449219 163.519531 238.914062 L 158.566406 178.652344 C 158.4375 177.109375 157.089844 175.964844 155.550781 176.089844 C 154.019531 176.21875 152.878906 177.570312 153 179.113281 Z M 216.605469 178.652344 L 211.652344 238.914062 C 211.527344 240.449219 212.667969 241.800781 214.199219 241.929688 C 215.738281 242.054688 217.085938 240.910156 217.214844 239.375 L 222.167969 179.113281 C 222.292969 177.570312 221.152344 176.21875 219.621094 176.089844 C 218.082031 175.964844 216.734375 177.109375 216.605469 178.652344 Z M 167 126.667969 L 126.003906 137.679688 C 124.519531 138.078125 123.636719 139.613281 124.035156 141.109375 C 124.429688 142.597656 125.964844 143.484375 127.453125 143.082031 L 243.957031 111.785156 C 245.445312 111.386719 246.332031 109.847656 245.933594 108.359375 C 245.53125 106.867188 244 105.980469 242.515625 106.378906 L 201.519531 117.394531 L 198.335938 105.492188 C 197.9375 104 196.410156 103.117188 194.921875 103.515625 L 165.796875 111.339844 C 164.304688 111.738281 163.421875 113.273438 163.820312 114.769531 Z M 196.125 118.839844 L 193.671875 109.648438 C 193.671875 109.648438 169.933594 116.023438 169.933594 116.023438 L 172.394531 125.214844 Z M 196.125 118.839844 " fill-opacity="1" fill-rule="evenodd"/></g><g clip-path="url(#60956af68b)"><path fill="#a15950" d="M 132.445312 100.246094 C 132.996094 100.011719 133.152344 96 133.3125 95.371094 C 133.390625 94.742188 133.707031 90.734375 134.257812 90.496094 C 142.839844 86.25 151.582031 82.476562 160.5625 79.175781 C 195.132812 66.515625 233.882812 60.933594 269.792969 71.152344 C 299.328125 79.566406 326.65625 98.515625 342.089844 125.332031 C 350.28125 139.484375 354.535156 155.601562 354.613281 171.878906 C 354.691406 179.742188 353.589844 187.449219 352.25 195.074219 C 350.832031 203.019531 349.179688 210.800781 346.5 218.429688 C 335.082031 250.902344 309.878906 275.910156 279.324219 291.003906 C 245.378906 307.753906 206.949219 312 169.539062 309.011719 C 149.613281 307.359375 129.769531 303.902344 110.394531 299.105469 C 95.429688 295.488281 80.703125 290.769531 66.683594 284.402344 C 39.515625 272.054688 14.234375 252.082031 5.335938 222.519531 C 0.0585938 205.0625 1.792969 187.605469 5.257812 170.070312 C 8.644531 153.007812 15.96875 137.203125 26.207031 123.207031 C 47.152344 94.742188 78.339844 73.90625 110.394531 59.753906 C 144.257812 44.8125 181.351562 37.5 218.367188 38.285156 C 217.894531 38.285156 217.183594 48.113281 216.554688 48.113281 C 207.8125 47.878906 198.992188 48.113281 190.25 48.824219 C 155.285156 51.652344 120.945312 61.875 90.152344 78.546875 C 60.621094 94.585938 32.347656 116.761719 15.730469 146.480469 C 11.558594 154.03125 8.171875 161.972656 5.808594 170.230469 C 5.335938 171.957031 4.941406 173.765625 4.46875 175.574219 C 3.445312 179.429688 4.941406 171.800781 4.625 174.476562 C 4.390625 176.832031 3.996094 179.191406 3.839844 181.550781 C 3.523438 185.640625 3.523438 189.808594 3.839844 193.898438 C 4.863281 209.703125 10.375 224.796875 19.824219 237.535156 C 37.152344 260.96875 64.875 274.648438 91.964844 283.457031 C 107.953125 288.648438 124.492188 292.265625 141.03125 295.171875 C 160.71875 298.554688 180.722656 300.519531 200.726562 299.890625 C 234.828125 298.949219 269.085938 290.457031 297.832031 271.582031 C 311.535156 262.542969 323.742188 251.21875 333.269531 237.851562 C 337.996094 231.089844 342.089844 223.933594 345.320312 216.386719 C 346.972656 212.53125 348.46875 208.601562 349.730469 204.589844 C 350.359375 202.625 350.910156 200.660156 351.382812 198.691406 C 351.621094 197.671875 351.855469 196.648438 352.09375 195.625 C 352.957031 192.007812 351.621094 199.558594 352.015625 195.863281 C 353.667969 179.742188 352.722656 164.015625 346.894531 148.683594 C 341.695312 135.003906 333.269531 122.65625 322.875 112.433594 C 300.585938 90.339844 270.265625 77.996094 239.078125 75.871094 C 202.144531 73.433594 165.363281 84.050781 132.445312 100.246094 Z M 132.445312 100.246094 " fill-opacity="1" fill-rule="nonzero"/></g></svg>