<svg xmlns="http://www.w3.org/2000/svg" xmlns:xlink="http://www.w3.org/1999/xlink" width="500" zoomAndPan="magnify" viewBox="0 0 375 374.999991" height="500" preserveAspectRatio="xMidYMid meet" version="1.0"><defs><clipPath id="a4207035ae"><path d="M 20 76.085938 L 356.25 76.085938 L 356.25 336 L 20 336 Z M 20 76.085938 " clip-rule="nonzero"/></clipPath><clipPath id="c717f6dbe0"><path d="M 112.085938 118 L 262.835938 118 L 262.835938 314.777344 L 112.085938 314.777344 Z M 112.085938 118 " clip-rule="nonzero"/></clipPath></defs><g clip-path="url(#a4207035ae)"><path fill="#3b6b6f" d="M 144.753906 135.921875 C 145.28125 135.695312 145.429688 131.871094 145.578125 131.273438 C 145.65625 130.671875 145.953125 126.847656 146.480469 126.625 C 154.644531 122.574219 162.960938 118.976562 171.503906 115.828125 C 204.394531 103.753906 241.257812 98.429688 275.425781 108.179688 C 303.519531 116.203125 329.519531 134.269531 344.207031 159.839844 C 351.996094 173.335938 356.042969 188.707031 356.117188 204.226562 C 356.191406 211.722656 355.144531 219.070312 353.871094 226.34375 C 352.523438 233.917969 350.949219 241.339844 348.402344 248.613281 C 337.535156 279.578125 313.5625 303.421875 284.488281 317.820312 C 252.199219 333.789062 215.632812 337.835938 180.046875 334.988281 C 161.089844 333.414062 142.207031 330.113281 123.777344 325.542969 C 109.539062 322.09375 95.53125 317.59375 82.191406 311.519531 C 56.34375 299.75 32.292969 280.703125 23.828125 252.511719 C 18.808594 235.867188 20.457031 219.222656 23.75 202.5 C 26.972656 186.230469 33.941406 171.160156 43.683594 157.8125 C 63.613281 130.671875 93.28125 110.804688 123.777344 97.308594 C 155.992188 83.0625 191.285156 76.085938 226.5 76.835938 C 226.046875 76.835938 225.375 86.210938 224.773438 86.210938 C 216.457031 85.984375 208.066406 86.210938 199.75 86.882812 C 166.484375 89.582031 133.816406 99.332031 104.519531 115.226562 C 76.425781 130.523438 49.527344 151.667969 33.71875 180.007812 C 29.746094 187.207031 26.523438 194.777344 24.277344 202.652344 C 23.828125 204.300781 23.453125 206.027344 23.003906 207.75 C 22.027344 211.425781 23.453125 204.152344 23.152344 206.699219 C 22.925781 208.949219 22.554688 211.199219 22.402344 213.449219 C 22.101562 217.347656 22.101562 221.320312 22.402344 225.21875 C 23.378906 240.289062 28.621094 254.6875 37.613281 266.832031 C 54.097656 289.175781 80.46875 302.222656 106.242188 310.621094 C 121.453125 315.570312 137.1875 319.019531 152.921875 321.792969 C 171.652344 325.015625 190.683594 326.890625 209.714844 326.292969 C 242.15625 325.390625 274.75 317.292969 302.097656 299.300781 C 315.132812 290.675781 326.746094 279.878906 335.8125 267.132812 C 340.308594 260.683594 344.207031 253.863281 347.277344 246.664062 C 348.851562 242.988281 350.273438 239.242188 351.472656 235.417969 C 352.074219 233.542969 352.597656 231.667969 353.046875 229.792969 C 353.269531 228.820312 353.496094 227.84375 353.71875 226.871094 C 354.542969 223.421875 353.269531 230.617188 353.644531 227.09375 C 355.21875 211.722656 354.320312 196.726562 348.777344 182.109375 C 343.832031 169.0625 335.8125 157.289062 325.921875 147.542969 C 304.71875 126.472656 275.875 114.703125 246.203125 112.675781 C 211.0625 110.351562 176.074219 120.476562 144.753906 135.921875 Z M 144.753906 135.921875 " fill-opacity="1" fill-rule="nonzero"/></g><g clip-path="url(#c717f6dbe0)"><path fill="#3b6b6f" d="M 247.984375 118.066406 C 249.539062 118.410156 250.75 118.582031 251.785156 118.929688 C 252.820312 119.273438 254.203125 119.445312 255.066406 120.308594 C 257.308594 122.207031 259.382812 124.105469 261.28125 126.347656 C 261.972656 127.210938 261.800781 128.933594 262.144531 130.140625 C 262.835938 131.867188 261.28125 132.558594 260.761719 133.59375 C 259.726562 135.664062 257.484375 136.179688 255.929688 137.390625 C 255.238281 137.90625 254.375 138.425781 253.855469 139.113281 C 252.476562 140.667969 251.265625 142.394531 249.019531 142.566406 C 248.675781 142.566406 248.332031 142.738281 248.15625 142.910156 C 246.949219 144.117188 245.742188 145.152344 244.703125 146.535156 C 241.941406 150.15625 239.179688 153.78125 236.933594 157.75 C 235.550781 160.164062 233.824219 162.234375 232.789062 164.820312 C 232.617188 165.167969 232.617188 165.339844 232.269531 165.683594 C 230.199219 167.753906 228.992188 170.171875 227.78125 172.757812 C 226.574219 175.691406 224.5 178.28125 222.773438 181.039062 C 220.355469 184.835938 217.9375 188.460938 215.695312 192.253906 C 214.3125 194.671875 213.277344 197.085938 211.894531 199.675781 C 211.203125 201.226562 210.339844 202.609375 209.648438 203.988281 C 208.960938 205.539062 208.097656 206.921875 207.40625 208.472656 C 206.886719 209.507812 206.195312 210.714844 205.679688 211.75 C 204.640625 213.648438 203.777344 215.375 202.742188 217.273438 C 200.671875 221.929688 198.082031 226.246094 196.179688 231.074219 C 195.144531 234.007812 193.246094 236.597656 191.863281 239.359375 C 190.308594 242.808594 188.753906 246.429688 187.203125 249.882812 C 185.648438 253.851562 184.09375 257.992188 182.539062 261.960938 C 181.675781 264.03125 180.121094 265.929688 179.257812 267.824219 C 177.359375 271.621094 175.460938 275.246094 174.25 279.386719 C 173.214844 283.007812 172.523438 286.804688 170.453125 290.253906 C 170.105469 290.773438 170.105469 291.636719 169.761719 292.324219 C 169.070312 294.222656 168.378906 295.949219 167.863281 297.847656 C 167 300.609375 165.445312 303.195312 165.617188 306.472656 C 165.789062 309.40625 164.234375 311.648438 161.816406 313.03125 C 160.609375 313.71875 158.882812 314.238281 157.5 314.066406 C 155.773438 313.894531 153.703125 313.894531 152.148438 312.859375 C 151.976562 312.683594 151.800781 312.511719 151.457031 312.511719 C 148.519531 312.511719 146.621094 310.269531 144.722656 308.542969 C 142.996094 306.992188 141.960938 304.75 141.269531 302.503906 C 141.097656 301.988281 140.921875 301.296875 140.578125 300.78125 C 138.160156 297.847656 136.433594 294.570312 135.050781 290.945312 C 134.363281 289.21875 133.5 287.667969 132.632812 286.113281 C 130.734375 281.972656 128.835938 277.660156 127.109375 273.347656 C 125.726562 270.070312 124.691406 266.789062 123.484375 263.511719 C 123.484375 263.339844 123.308594 262.996094 123.308594 262.824219 C 123.308594 258.855469 121.410156 255.230469 120.375 251.433594 C 119.683594 248.328125 118.476562 245.222656 118.128906 242.117188 C 117.613281 236.769531 116.058594 231.421875 115.019531 226.074219 C 114.675781 224.175781 114.15625 222.105469 113.292969 220.378906 C 112.085938 218.136719 112.605469 215.71875 112.605469 213.476562 C 112.605469 212.441406 113.292969 212.097656 114.15625 212.269531 C 117.265625 212.785156 120.71875 212.613281 123.484375 214.167969 C 126.074219 215.546875 127.972656 217.789062 128.316406 221.070312 C 128.664062 223.828125 129.355469 226.417969 129.871094 229.003906 C 130.21875 230.730469 130.5625 232.628906 130.734375 234.355469 C 130.734375 234.871094 130.734375 235.214844 130.90625 235.734375 C 131.945312 240.21875 132.808594 244.707031 134.015625 249.019531 C 134.878906 252.644531 135.742188 256.265625 136.777344 260.0625 C 137.640625 263.167969 138.503906 266.273438 139.542969 269.378906 C 139.714844 270.242188 140.058594 271.105469 140.40625 271.792969 C 141.613281 274.726562 143.167969 277.488281 144.203125 280.421875 C 145.066406 282.835938 146.105469 285.078125 147.484375 287.148438 C 148.003906 288.011719 148.519531 289.394531 149.902344 289.394531 C 151.457031 289.394531 151.976562 288.011719 152.492188 286.804688 C 153.527344 284.5625 154.738281 282.320312 155.773438 280.074219 C 157.15625 277.144531 158.363281 274.210938 159.917969 271.277344 C 162.335938 266.964844 164.234375 262.304688 165.789062 257.644531 C 166.480469 255.574219 167.6875 253.679688 168.726562 251.78125 C 169.070312 251.089844 169.414062 250.398438 169.761719 249.710938 C 170.796875 246.777344 171.832031 243.84375 173.558594 241.082031 C 174.597656 239.183594 175.113281 237.113281 176.324219 235.390625 C 177.878906 233.144531 178.742188 230.558594 179.777344 227.96875 C 180.640625 225.554688 182.019531 223.3125 183.058594 220.894531 C 183.230469 220.722656 183.402344 220.550781 183.402344 220.207031 C 184.613281 216.066406 187.203125 212.613281 188.929688 208.820312 C 189.101562 208.472656 189.101562 208.128906 189.445312 207.957031 C 191.519531 205.886719 192.382812 203.296875 193.417969 200.710938 C 193.761719 199.847656 193.9375 198.8125 194.972656 198.121094 C 195.316406 197.949219 195.492188 197.257812 195.664062 196.914062 C 195.835938 196.570312 195.835938 196.050781 196.007812 195.878906 C 198.769531 192.429688 199.980469 188.113281 202.050781 184.144531 C 203.089844 182.25 204.125 180.523438 205.160156 178.625 C 207.234375 175.175781 209.132812 171.894531 211.203125 168.445312 C 212.585938 166.203125 213.96875 164.132812 215.347656 162.0625 C 216.902344 159.644531 218.457031 157.230469 220.011719 154.644531 C 221.910156 151.710938 223.464844 148.605469 225.363281 145.84375 C 229.679688 139.460938 234.34375 133.25 238.832031 127.035156 C 239.179688 126.519531 239.523438 126.175781 239.871094 125.828125 C 240.90625 125.140625 241.421875 124.105469 241.25 122.722656 C 241.078125 121.515625 241.597656 121 242.632812 120.308594 C 243.839844 119.789062 244.53125 118.582031 246.257812 119.101562 C 246.949219 119.101562 247.640625 118.238281 247.984375 118.066406 Z M 247.984375 118.066406 " fill-opacity="1" fill-rule="nonzero"/></g></svg>