<svg xmlns="http://www.w3.org/2000/svg" xmlns:xlink="http://www.w3.org/1999/xlink" width="1080" zoomAndPan="magnify" viewBox="0 0 810 599.999999" height="800" preserveAspectRatio="xMidYMid meet" version="1.0"><defs><clipPath id="eb252e3376"><path d="M 94 61 L 718.707031 61 L 718.707031 544 L 94 544 Z M 94 61 " clip-rule="nonzero"/></clipPath><clipPath id="c2aa167563"><path d="M 323.03125 179 L 514 179 L 514 483.730469 L 323.03125 483.730469 Z M 323.03125 179 " clip-rule="nonzero"/></clipPath></defs><g clip-path="url(#eb252e3376)"><path fill="#624436" d="M 325.328125 171.265625 C 326.304688 170.847656 326.582031 163.734375 326.859375 162.621094 C 327 161.503906 327.558594 154.394531 328.53125 153.976562 C 343.722656 146.445312 359.191406 139.753906 375.078125 133.898438 C 436.257812 111.449219 504.824219 101.550781 568.371094 119.675781 C 620.632812 134.59375 668.988281 168.199219 696.304688 215.742188 C 710.796875 240.839844 718.324219 269.425781 718.464844 298.285156 C 718.601562 312.230469 716.652344 325.894531 714.28125 339.417969 C 711.773438 353.5 708.847656 367.304688 704.109375 380.828125 C 683.902344 438.414062 639.304688 482.75 585.234375 509.523438 C 525.171875 539.222656 457.164062 546.75 390.964844 541.453125 C 355.707031 538.523438 320.589844 532.390625 286.304688 523.882812 C 259.828125 517.46875 233.765625 509.105469 208.960938 497.808594 C 160.882812 475.917969 116.148438 440.503906 100.398438 388.078125 C 91.0625 357.125 94.128906 326.171875 100.261719 295.078125 C 106.253906 264.824219 119.214844 236.796875 137.328125 211.980469 C 174.398438 161.503906 229.585938 124.554688 286.304688 99.457031 C 346.230469 72.96875 411.871094 60 477.371094 61.394531 C 476.535156 61.394531 475.277344 78.824219 474.164062 78.824219 C 458.695312 78.40625 443.085938 78.824219 427.617188 80.078125 C 365.742188 85.097656 304.980469 103.222656 250.492188 132.78125 C 198.230469 161.226562 148.199219 200.546875 118.796875 253.25 C 111.410156 266.636719 105.417969 280.71875 101.234375 295.359375 C 100.398438 298.425781 99.703125 301.632812 98.867188 304.839844 C 97.054688 311.671875 99.703125 298.144531 99.144531 302.886719 C 98.726562 307.070312 98.03125 311.253906 97.75 315.4375 C 97.195312 322.6875 97.195312 330.074219 97.75 337.328125 C 99.5625 365.351562 109.320312 392.121094 126.042969 414.710938 C 156.699219 456.261719 205.757812 480.519531 253.695312 496.136719 C 281.984375 505.339844 311.25 511.753906 340.519531 516.910156 C 375.359375 522.90625 410.753906 526.394531 446.152344 525.277344 C 506.496094 523.605469 567.117188 508.546875 617.984375 475.082031 C 642.234375 459.046875 663.832031 438.96875 680.695312 415.269531 C 689.058594 403.277344 696.304688 390.589844 702.019531 377.203125 C 704.945312 370.371094 707.59375 363.398438 709.824219 356.289062 C 710.9375 352.804688 711.914062 349.316406 712.75 345.832031 C 713.167969 344.019531 713.585938 342.207031 714.003906 340.394531 C 715.535156 333.980469 713.167969 347.363281 713.863281 340.8125 C 716.789062 312.230469 715.117188 284.34375 704.804688 257.152344 C 695.609375 232.894531 680.695312 211.003906 662.300781 192.875 C 622.863281 153.695312 569.207031 131.804688 514.019531 128.042969 C 448.660156 123.71875 383.578125 142.542969 325.328125 171.265625 Z M 325.328125 171.265625 " fill-opacity="1" fill-rule="nonzero"/></g><g clip-path="url(#c2aa167563)"><path fill="#624436" d="M 333.304688 483.730469 C 332.546875 483.730469 331.597656 483.542969 330.839844 483.355469 C 328.949219 482.40625 327.8125 480.707031 327.8125 478.816406 L 323.078125 417.539062 C 323.078125 416.59375 323.457031 415.457031 323.644531 414.511719 L 445.964844 182.832031 C 447.480469 179.996094 450.890625 178.859375 453.539062 180.371094 C 456.378906 182.074219 457.515625 185.480469 456 188.128906 L 450.132812 199.097656 L 498.039062 224.25 L 503.71875 213.28125 L 513.753906 218.578125 L 505.421875 234.464844 L 391.433594 449.878906 C 391.054688 451.011719 390.109375 451.769531 389.351562 452.335938 L 336.332031 482.976562 C 335.195312 483.542969 334.25 483.730469 333.304688 483.730469 Z M 334.4375 418.105469 L 338.414062 468.789062 L 382.34375 443.636719 L 492.734375 234.464844 L 444.832031 209.308594 Z M 334.4375 418.105469 " fill-opacity="1" fill-rule="evenodd"/></g><path fill="#624436" d="M 500.308594 237.679688 C 499.550781 237.679688 498.605469 237.488281 497.660156 237.109375 L 439.90625 206.660156 C 437.066406 205.148438 435.929688 201.742188 437.445312 199.097656 L 448.996094 177.347656 C 456.949219 162.59375 475.125 156.730469 489.894531 164.675781 L 504.285156 172.242188 C 519.054688 180.183594 524.734375 198.339844 516.972656 213.089844 L 505.421875 234.464844 C 504.285156 236.734375 502.390625 237.679688 500.308594 237.679688 Z M 450.132812 199.097656 L 498.039062 224.25 L 506.9375 207.417969 C 511.671875 198.339844 508.261719 186.804688 498.984375 182.074219 L 484.59375 174.320312 C 475.316406 169.59375 463.765625 172.996094 459.03125 182.265625 Z M 450.132812 199.097656 " fill-opacity="1" fill-rule="evenodd"/><path fill="#624436" d="M 364.355469 424.722656 C 363.597656 424.722656 362.652344 424.347656 361.707031 424.15625 C 358.863281 422.644531 357.917969 419.238281 359.433594 416.59375 L 466.417969 214.039062 C 467.929688 211.199219 471.339844 210.066406 473.988281 211.769531 C 477.019531 213.28125 477.964844 216.683594 476.453125 219.332031 L 369.46875 421.886719 C 368.332031 423.589844 366.4375 424.722656 364.355469 424.722656 Z M 364.355469 424.722656 " fill-opacity="1" fill-rule="evenodd"/><path fill="#624436" d="M 393.328125 440.234375 C 392.570312 440.234375 391.433594 439.855469 390.675781 439.664062 L 332.925781 409.214844 C 329.894531 407.703125 328.949219 404.296875 330.460938 401.652344 C 331.976562 398.625 335.574219 397.679688 338.035156 399.191406 L 395.976562 429.640625 C 398.816406 431.34375 399.953125 434.75 398.25 437.207031 C 397.304688 438.910156 395.410156 440.234375 393.328125 440.234375 Z M 393.328125 440.234375 " fill-opacity="1" fill-rule="evenodd"/></svg>