<svg xmlns="http://www.w3.org/2000/svg" xmlns:xlink="http://www.w3.org/1999/xlink" width="500" zoomAndPan="magnify" viewBox="0 0 375 374.999991" height="500" preserveAspectRatio="xMidYMid meet" version="1.0"><defs><clipPath id="6a1ccf75d9"><path d="M 21 52 L 362.585938 52 L 362.585938 317 L 21 317 Z M 21 52 " clip-rule="nonzero"/></clipPath></defs><g clip-path="url(#6a1ccf75d9)"><path fill="#dd7210" d="M 147.332031 112.71875 C 147.867188 112.492188 148.019531 108.601562 148.171875 107.992188 C 148.246094 107.382812 148.550781 103.492188 149.085938 103.261719 C 157.398438 99.144531 165.863281 95.484375 174.554688 92.28125 C 208.03125 80 245.550781 74.585938 280.324219 84.5 C 308.917969 92.660156 335.378906 111.042969 350.324219 137.050781 C 358.257812 150.777344 362.375 166.414062 362.449219 182.199219 C 362.527344 189.828125 361.460938 197.300781 360.164062 204.699219 C 358.789062 212.402344 357.1875 219.953125 354.597656 227.351562 C 343.539062 258.847656 319.136719 283.101562 289.550781 297.746094 C 256.683594 313.988281 219.46875 318.109375 183.25 315.210938 C 163.957031 313.609375 144.738281 310.253906 125.980469 305.601562 C 111.492188 302.09375 97.230469 297.515625 83.65625 291.339844 C 57.347656 279.363281 32.871094 259.992188 24.253906 231.316406 C 19.144531 214.382812 20.824219 197.453125 24.179688 180.445312 C 27.457031 163.894531 34.546875 148.566406 44.460938 134.988281 C 64.746094 107.382812 94.945312 87.171875 125.980469 73.441406 C 158.769531 58.953125 194.6875 51.859375 230.527344 52.621094 C 230.070312 52.621094 229.382812 62.15625 228.773438 62.15625 C 220.308594 61.925781 211.769531 62.15625 203.304688 62.839844 C 169.445312 65.585938 136.199219 75.5 106.382812 91.671875 C 77.785156 107.230469 50.410156 128.734375 34.320312 157.566406 C 30.277344 164.886719 27 172.589844 24.710938 180.597656 C 24.253906 182.277344 23.871094 184.03125 23.414062 185.785156 C 22.425781 189.519531 23.871094 182.125 23.566406 184.714844 C 23.339844 187.003906 22.957031 189.292969 22.804688 191.582031 C 22.5 195.546875 22.5 199.589844 22.804688 203.554688 C 23.796875 218.882812 29.132812 233.527344 38.285156 245.882812 C 55.0625 268.609375 81.902344 281.882812 108.136719 290.421875 C 123.617188 295.457031 139.628906 298.964844 155.644531 301.789062 C 174.707031 305.066406 194.078125 306.972656 213.445312 306.363281 C 246.464844 305.449219 279.636719 297.210938 307.46875 278.90625 C 320.738281 270.136719 332.558594 259.152344 341.785156 246.1875 C 346.359375 239.628906 350.324219 232.6875 353.453125 225.367188 C 355.054688 221.628906 356.503906 217.816406 357.722656 213.925781 C 358.332031 212.019531 358.867188 210.113281 359.324219 208.207031 C 359.554688 207.214844 359.78125 206.222656 360.011719 205.234375 C 360.847656 201.722656 359.554688 209.046875 359.933594 205.460938 C 361.535156 189.828125 360.621094 174.574219 354.976562 159.699219 C 349.945312 146.429688 341.785156 134.457031 331.71875 124.542969 C 310.140625 103.109375 280.78125 91.136719 250.582031 89.078125 C 214.820312 86.710938 179.207031 97.007812 147.332031 112.71875 Z M 147.332031 112.71875 " fill-opacity="1" fill-rule="nonzero"/></g></svg>