<svg xmlns="http://www.w3.org/2000/svg" xmlns:xlink="http://www.w3.org/1999/xlink" width="559" zoomAndPan="magnify" viewBox="0 0 419.25 297.75" height="396" preserveAspectRatio="xMidYMid meet" version="1.0"><defs><g/></defs><g fill="#ab600d" fill-opacity="1"><g transform="translate(130.85612, 147.947555)"><g><path d="M 18.734375 -6.835938 C 18.734375 -8.375 18.367188 -9.671875 17.640625 -10.722656 C 16.871094 -11.773438 15.78125 -12.300781 14.324219 -12.300781 C 13.878906 -9.347656 12.867188 -7.890625 11.25 -7.890625 C 10.640625 -7.890625 10.195312 -8.132812 9.914062 -8.617188 C 9.628906 -9.105469 9.46875 -9.710938 9.46875 -10.398438 C 9.386719 -12.746094 9.75 -16.46875 10.558594 -21.523438 C 10.882812 -21.605469 11.167969 -21.644531 11.410156 -21.644531 C 12.300781 -21.644531 12.746094 -21.039062 12.824219 -19.824219 C 12.867188 -18.613281 12.542969 -17.679688 11.855469 -17.035156 C 12.503906 -16.871094 13.109375 -16.792969 13.675781 -16.792969 C 15.457031 -16.792969 16.914062 -17.398438 17.964844 -18.691406 C 19.015625 -19.988281 19.582031 -21.523438 19.625 -23.304688 C 19.625 -24.882812 19.257812 -26.097656 18.492188 -26.945312 C 17.722656 -27.757812 16.792969 -28.199219 15.699219 -28.199219 C 14.648438 -28.199219 13.636719 -27.835938 12.746094 -27.109375 C 11.855469 -26.378906 11.25 -25.367188 10.925781 -24.113281 C 11.125 -25.328125 11.371094 -26.5 11.613281 -27.632812 C 11.855469 -28.765625 12.015625 -29.578125 12.097656 -30.101562 C 12.179688 -30.628906 12.257812 -31.15625 12.257812 -31.640625 C 12.257812 -32.894531 11.816406 -33.824219 10.964844 -34.390625 C 10.074219 -34.957031 9.023438 -35.28125 7.769531 -35.28125 C 6.796875 -35.28125 6.027344 -35.160156 5.460938 -35 C 4.894531 -34.835938 4.128906 -34.472656 3.117188 -33.90625 C 3.84375 -33.257812 4.53125 -31.921875 5.179688 -29.941406 C 5.828125 -27.917969 6.191406 -26.015625 6.269531 -24.15625 C 5.136719 -24.316406 4.289062 -24.761719 3.722656 -25.410156 C 3.15625 -26.058594 2.46875 -27.109375 1.738281 -28.605469 C 0.324219 -27.148438 -0.40625 -25.570312 -0.445312 -23.953125 C -0.527344 -21.6875 0.285156 -20.269531 1.902344 -19.746094 C 2.304688 -19.582031 2.671875 -19.542969 3.035156 -19.542969 C 3.882812 -19.542969 4.855469 -19.90625 5.90625 -20.636719 C 5.828125 -20.191406 5.542969 -18.449219 5.015625 -15.414062 C 4.449219 -12.339844 4.167969 -9.832031 4.085938 -7.890625 C 3.925781 -5.625 4.289062 -3.761719 5.097656 -2.386719 C 6.191406 -0.445312 8.09375 0.527344 10.804688 0.527344 C 12.90625 0.527344 14.769531 -0.160156 16.347656 -1.578125 C 17.882812 -2.953125 18.691406 -4.734375 18.734375 -6.835938 Z M 18.734375 -6.835938 "/></g></g></g><g fill="#ab600d" fill-opacity="1"><g transform="translate(149.544712, 147.947555)"><g><path d="M 3.359375 -18.492188 C 3.4375 -16.386719 3.15625 -14.039062 2.550781 -11.371094 C 1.820312 -8.335938 1.496094 -6.191406 1.539062 -4.976562 C 1.578125 -1.335938 3.238281 0.527344 6.554688 0.527344 C 8.253906 0.566406 9.589844 0 10.519531 -1.214844 C 11.449219 -2.425781 11.9375 -3.925781 12.015625 -5.703125 C 12.058594 -6.835938 11.855469 -7.890625 11.449219 -8.941406 C 10.640625 -8.214844 9.914062 -7.890625 9.265625 -7.890625 C 7.890625 -7.890625 7.242188 -9.386719 7.242188 -12.382812 C 7.242188 -14.445312 7.769531 -17.722656 8.820312 -22.171875 C 8.859375 -22.496094 8.941406 -22.859375 9.0625 -23.347656 C 9.183594 -23.789062 9.265625 -24.15625 9.347656 -24.398438 C 9.386719 -24.640625 9.425781 -24.964844 9.46875 -25.289062 C 9.507812 -25.613281 9.546875 -25.894531 9.546875 -26.136719 C 9.507812 -28.039062 8.171875 -29.011719 5.503906 -29.011719 C 3.558594 -29.011719 1.820312 -28.523438 0.203125 -27.632812 C 2.226562 -24.800781 3.277344 -21.769531 3.359375 -18.492188 Z M 0 -36.332031 C 0 -34.878906 0.484375 -33.703125 1.457031 -32.894531 C 2.425781 -32.042969 3.761719 -31.640625 5.460938 -31.640625 C 7.160156 -31.640625 8.496094 -32.042969 9.46875 -32.894531 C 10.398438 -33.703125 10.882812 -34.878906 10.882812 -36.332031 C 10.882812 -37.789062 10.398438 -38.964844 9.46875 -39.8125 C 8.496094 -40.621094 7.160156 -41.066406 5.460938 -41.066406 C 3.761719 -41.066406 2.425781 -40.621094 1.457031 -39.773438 C 0.484375 -38.921875 0 -37.789062 0 -36.332031 Z M 0 -36.332031 "/></g></g></g><g fill="#ab600d" fill-opacity="1"><g transform="translate(161.720512, 147.947555)"><g><path d="M 11.003906 -20.554688 C 11.53125 -20.554688 12.015625 -20.472656 12.421875 -20.3125 C 12.824219 -20.148438 13.148438 -19.945312 13.390625 -19.703125 C 13.636719 -19.460938 13.796875 -19.179688 13.957031 -18.773438 C 14.121094 -18.367188 14.203125 -17.964844 14.28125 -17.640625 C 14.324219 -17.316406 14.324219 -16.871094 14.324219 -16.347656 C 14.324219 -15.78125 14.28125 -15.375 14.28125 -15.050781 C 14.242188 -14.726562 14.203125 -14.28125 14.121094 -13.714844 C 14.039062 -13.148438 14 -12.746094 14 -12.542969 C 13.957031 -12.21875 13.878906 -11.570312 13.796875 -10.679688 C 13.714844 -9.792969 13.636719 -9.0625 13.59375 -8.539062 C 13.515625 -8.011719 13.472656 -7.324219 13.472656 -6.433594 C 13.472656 -5.542969 13.515625 -4.816406 13.59375 -4.289062 C 13.675781 -3.722656 13.796875 -3.117188 14.039062 -2.46875 C 14.28125 -1.78125 14.566406 -1.253906 14.96875 -0.890625 C 15.335938 -0.484375 15.820312 -0.160156 16.46875 0.121094 C 17.074219 0.40625 17.800781 0.527344 18.652344 0.527344 C 20.351562 0.566406 21.605469 -0.0390625 22.335938 -1.253906 C 23.0625 -2.46875 23.347656 -3.964844 23.222656 -5.828125 C 23.183594 -6.796875 22.902344 -7.847656 22.414062 -8.902344 C 21.6875 -8.171875 21 -7.847656 20.3125 -7.847656 C 19.867188 -7.847656 19.503906 -8.050781 19.179688 -8.457031 C 18.855469 -8.859375 18.613281 -9.425781 18.492188 -10.113281 C 18.246094 -11.125 18.246094 -12.460938 18.53125 -14.082031 C 18.691406 -14.847656 18.8125 -15.414062 18.894531 -15.78125 C 18.976562 -16.144531 19.179688 -16.667969 19.421875 -17.398438 C 19.664062 -18.125 19.90625 -18.652344 20.191406 -18.976562 C 20.433594 -19.300781 20.835938 -19.664062 21.324219 -19.988281 C 21.808594 -20.3125 22.335938 -20.472656 22.980469 -20.511719 L 23.265625 -20.511719 C 24.480469 -20.511719 25.328125 -20.070312 25.894531 -19.21875 C 26.460938 -18.367188 26.703125 -17.398438 26.625 -16.265625 C 26.542969 -15.132812 26.460938 -13.957031 26.339844 -12.824219 C 26.300781 -12.703125 26.097656 -11.652344 25.691406 -9.710938 C 25.289062 -7.726562 25.125 -6.3125 25.125 -5.460938 C 25.085938 -4.492188 25.207031 -3.558594 25.488281 -2.710938 C 25.734375 -1.859375 26.300781 -1.09375 27.109375 -0.445312 C 27.917969 0.203125 28.929688 0.527344 30.222656 0.527344 C 31.921875 0.566406 33.21875 0 34.027344 -1.214844 C 34.835938 -2.386719 35.160156 -3.882812 35.078125 -5.664062 C 35.039062 -6.675781 34.753906 -7.769531 34.269531 -8.902344 C 33.5 -8.171875 32.773438 -7.847656 32.125 -7.847656 C 30.46875 -7.847656 29.902344 -9.304688 30.46875 -12.300781 C 31.316406 -16.589844 31.800781 -19.257812 31.964844 -20.351562 C 32.328125 -23.0625 32.042969 -25.207031 31.074219 -26.746094 C 30.0625 -28.199219 28.445312 -28.96875 26.257812 -28.96875 C 25.207031 -28.96875 24.277344 -28.726562 23.507812 -28.324219 C 22.699219 -27.917969 22.089844 -27.3125 21.605469 -26.582031 C 21.121094 -25.855469 20.757812 -25.167969 20.511719 -24.519531 C 20.269531 -23.871094 20.027344 -23.144531 19.867188 -22.335938 L 19.625 -22.335938 C 19.664062 -24.316406 19.378906 -25.8125 18.773438 -26.785156 C 17.761719 -28.242188 16.144531 -29.011719 13.957031 -29.011719 C 12.867188 -29.011719 11.894531 -28.765625 11.046875 -28.363281 C 10.195312 -27.917969 9.507812 -27.3125 8.941406 -26.542969 C 8.375 -25.734375 7.929688 -25.046875 7.648438 -24.480469 C 7.324219 -23.871094 7.039062 -23.144531 6.714844 -22.335938 L 6.515625 -22.335938 C 6.636719 -24.4375 6.636719 -25.855469 6.515625 -26.582031 C 6.191406 -28.199219 5.261719 -29.050781 3.683594 -29.050781 C 2.550781 -29.050781 1.171875 -28.566406 -0.445312 -27.632812 C 0.851562 -25.410156 1.617188 -23.304688 1.941406 -21.363281 C 2.226562 -19.378906 2.144531 -16.46875 1.699219 -12.582031 C 1.617188 -12.179688 1.539062 -11.570312 1.457031 -10.761719 C 1.375 -9.953125 1.292969 -9.347656 1.253906 -9.023438 C 1.214844 -8.660156 1.171875 -8.09375 1.132812 -7.324219 C 1.050781 -6.515625 1.050781 -5.949219 1.132812 -5.582031 C 1.375 -1.496094 3.117188 0.527344 6.351562 0.527344 C 8.050781 0.566406 9.304688 -0.0390625 10.035156 -1.253906 C 10.761719 -2.46875 11.046875 -4.003906 10.925781 -5.867188 C 10.882812 -6.835938 10.601562 -7.890625 10.113281 -8.941406 C 9.386719 -8.214844 8.699219 -7.890625 8.011719 -7.890625 C 7.566406 -7.890625 7.203125 -8.09375 6.878906 -8.496094 C 6.554688 -8.902344 6.3125 -9.46875 6.191406 -10.15625 C 5.949219 -11.125 5.949219 -12.382812 6.148438 -13.917969 C 6.351562 -15.457031 6.675781 -16.667969 7.121094 -17.640625 C 7.972656 -19.582031 9.265625 -20.554688 11.003906 -20.554688 Z M 11.003906 -20.554688 "/></g></g></g><g fill="#ab600d" fill-opacity="1"><g transform="translate(196.266345, 147.947555)"><g><path d="M 8.335938 0.527344 C 10.277344 0.527344 11.855469 -0.363281 13.109375 -2.144531 C 14.28125 -3.84375 14.847656 -5.746094 14.769531 -7.847656 C 14.6875 -9.183594 14.324219 -10.277344 13.675781 -11.125 C 12.988281 -11.9375 12.058594 -12.382812 10.925781 -12.382812 C 10.480469 -12.382812 10.15625 -12.339844 9.953125 -12.300781 C 9.914062 -11.167969 9.628906 -10.113281 9.0625 -9.226562 C 8.496094 -8.335938 7.6875 -7.890625 6.636719 -7.890625 C 6.3125 -7.890625 6.070312 -7.972656 5.867188 -8.09375 C 5.625 -8.214844 5.460938 -8.414062 5.339844 -8.660156 C 5.21875 -8.902344 5.136719 -9.144531 5.058594 -9.386719 C 4.976562 -9.628906 4.894531 -9.914062 4.894531 -10.316406 C 4.894531 -10.679688 4.855469 -10.964844 4.855469 -11.207031 C 4.855469 -11.410156 4.855469 -11.691406 4.855469 -12.058594 C 4.855469 -12.421875 4.894531 -12.664062 4.894531 -12.785156 C 8.132812 -12.949219 10.722656 -13.878906 12.664062 -15.535156 C 14.605469 -17.195312 15.578125 -19.542969 15.578125 -22.578125 C 15.496094 -24.398438 14.96875 -25.933594 14 -27.148438 C 13.027344 -28.363281 11.652344 -29.011719 9.914062 -29.011719 C 8.171875 -29.011719 6.675781 -28.445312 5.421875 -27.390625 C 4.167969 -26.300781 3.238281 -24.882812 2.628906 -23.183594 C 2.023438 -21.445312 1.578125 -19.746094 1.335938 -18.125 C 1.050781 -16.507812 0.929688 -14.890625 0.929688 -13.269531 C 0.929688 -12.097656 0.972656 -11.003906 1.050781 -9.953125 C 1.132812 -8.902344 1.292969 -7.6875 1.617188 -6.351562 C 1.941406 -4.976562 2.347656 -3.84375 2.832031 -2.871094 C 3.316406 -1.902344 4.046875 -1.09375 5.015625 -0.445312 C 5.949219 0.203125 7.039062 0.527344 8.335938 0.527344 Z M 9.953125 -20.554688 C 10.519531 -20.554688 10.925781 -20.390625 11.25 -20.109375 C 11.53125 -19.824219 11.652344 -19.503906 11.652344 -19.097656 C 11.613281 -18.246094 11.167969 -17.558594 10.316406 -16.992188 C 9.46875 -16.425781 8.578125 -16.0625 7.648438 -15.902344 C 6.714844 -15.699219 5.828125 -15.617188 5.015625 -15.617188 C 5.179688 -16.914062 5.746094 -18.046875 6.675781 -19.058594 C 7.566406 -20.027344 8.660156 -20.554688 9.953125 -20.554688 Z M 9.953125 -20.554688 "/></g></g></g><g fill="#ab600d" fill-opacity="1"><g transform="translate(211.840125, 147.947555)"><g/></g></g><g fill="#ab600d" fill-opacity="1"><g transform="translate(218.838048, 147.947555)"><g><path d="M 18.734375 -6.835938 C 18.734375 -8.375 18.367188 -9.671875 17.640625 -10.722656 C 16.871094 -11.773438 15.78125 -12.300781 14.324219 -12.300781 C 13.878906 -9.347656 12.867188 -7.890625 11.25 -7.890625 C 10.640625 -7.890625 10.195312 -8.132812 9.914062 -8.617188 C 9.628906 -9.105469 9.46875 -9.710938 9.46875 -10.398438 C 9.386719 -12.746094 9.75 -16.46875 10.558594 -21.523438 C 10.882812 -21.605469 11.167969 -21.644531 11.410156 -21.644531 C 12.300781 -21.644531 12.746094 -21.039062 12.824219 -19.824219 C 12.867188 -18.613281 12.542969 -17.679688 11.855469 -17.035156 C 12.503906 -16.871094 13.109375 -16.792969 13.675781 -16.792969 C 15.457031 -16.792969 16.914062 -17.398438 17.964844 -18.691406 C 19.015625 -19.988281 19.582031 -21.523438 19.625 -23.304688 C 19.625 -24.882812 19.257812 -26.097656 18.492188 -26.945312 C 17.722656 -27.757812 16.792969 -28.199219 15.699219 -28.199219 C 14.648438 -28.199219 13.636719 -27.835938 12.746094 -27.109375 C 11.855469 -26.378906 11.25 -25.367188 10.925781 -24.113281 C 11.125 -25.328125 11.371094 -26.5 11.613281 -27.632812 C 11.855469 -28.765625 12.015625 -29.578125 12.097656 -30.101562 C 12.179688 -30.628906 12.257812 -31.15625 12.257812 -31.640625 C 12.257812 -32.894531 11.816406 -33.824219 10.964844 -34.390625 C 10.074219 -34.957031 9.023438 -35.28125 7.769531 -35.28125 C 6.796875 -35.28125 6.027344 -35.160156 5.460938 -35 C 4.894531 -34.835938 4.128906 -34.472656 3.117188 -33.90625 C 3.84375 -33.257812 4.53125 -31.921875 5.179688 -29.941406 C 5.828125 -27.917969 6.191406 -26.015625 6.269531 -24.15625 C 5.136719 -24.316406 4.289062 -24.761719 3.722656 -25.410156 C 3.15625 -26.058594 2.46875 -27.109375 1.738281 -28.605469 C 0.324219 -27.148438 -0.40625 -25.570312 -0.445312 -23.953125 C -0.527344 -21.6875 0.285156 -20.269531 1.902344 -19.746094 C 2.304688 -19.582031 2.671875 -19.542969 3.035156 -19.542969 C 3.882812 -19.542969 4.855469 -19.90625 5.90625 -20.636719 C 5.828125 -20.191406 5.542969 -18.449219 5.015625 -15.414062 C 4.449219 -12.339844 4.167969 -9.832031 4.085938 -7.890625 C 3.925781 -5.625 4.289062 -3.761719 5.097656 -2.386719 C 6.191406 -0.445312 8.09375 0.527344 10.804688 0.527344 C 12.90625 0.527344 14.769531 -0.160156 16.347656 -1.578125 C 17.882812 -2.953125 18.691406 -4.734375 18.734375 -6.835938 Z M 18.734375 -6.835938 "/></g></g></g><g fill="#ab600d" fill-opacity="1"><g transform="translate(237.526636, 147.947555)"><g><path d="M 8.375 0.527344 C 10.640625 0.484375 12.460938 -0.972656 13.835938 -3.882812 C 15.214844 -6.796875 15.941406 -10.558594 15.941406 -15.214844 C 15.941406 -16.101562 15.902344 -16.953125 15.820312 -17.84375 C 15.738281 -18.734375 15.660156 -19.703125 15.496094 -20.835938 C 15.335938 -21.96875 15.050781 -22.980469 14.726562 -23.914062 C 14.363281 -24.800781 13.917969 -25.691406 13.433594 -26.5 C 12.90625 -27.3125 12.21875 -27.917969 11.410156 -28.363281 C 10.601562 -28.808594 9.671875 -29.011719 8.617188 -29.011719 C 6.351562 -28.929688 4.492188 -27.472656 3.117188 -24.558594 C 1.738281 -21.644531 1.050781 -17.882812 1.050781 -13.269531 C 1.050781 -12.382812 1.050781 -11.492188 1.132812 -10.601562 C 1.214844 -9.710938 1.335938 -8.738281 1.496094 -7.605469 C 1.660156 -6.472656 1.902344 -5.460938 2.265625 -4.570312 C 2.589844 -3.640625 3.035156 -2.792969 3.558594 -1.984375 C 4.046875 -1.171875 4.734375 -0.527344 5.542969 -0.0820312 C 6.351562 0.363281 7.324219 0.566406 8.375 0.527344 Z M 10.679688 -20.554688 C 11.25 -20.554688 11.691406 -20.3125 12.015625 -19.90625 C 12.339844 -19.460938 12.503906 -18.9375 12.542969 -18.328125 C 12.625 -17.195312 12.300781 -15.941406 11.652344 -14.523438 C 10.964844 -13.109375 10.113281 -11.894531 9.105469 -10.925781 C 8.050781 -9.953125 7.121094 -9.46875 6.3125 -9.46875 C 5.179688 -9.46875 4.570312 -10.195312 4.492188 -11.652344 C 4.410156 -12.703125 4.652344 -13.917969 5.21875 -15.292969 C 5.785156 -16.667969 6.554688 -17.925781 7.566406 -18.976562 C 8.578125 -20.027344 9.628906 -20.554688 10.679688 -20.554688 Z M 10.679688 -20.554688 "/></g></g></g><g fill="#e76132" fill-opacity="1"><g transform="translate(54.252931, 238.21975)"><g><path d="M 48.808594 -17.816406 C 48.808594 -21.820312 47.859375 -25.195312 45.960938 -27.933594 C 43.957031 -30.675781 41.113281 -32.046875 37.316406 -32.046875 C 36.15625 -24.351562 33.523438 -20.554688 29.304688 -20.554688 C 27.722656 -20.554688 26.566406 -21.1875 25.828125 -22.453125 C 25.089844 -23.71875 24.667969 -25.300781 24.667969 -27.09375 C 24.457031 -33.207031 25.40625 -42.90625 27.515625 -56.082031 C 28.355469 -56.292969 29.09375 -56.398438 29.726562 -56.398438 C 32.046875 -56.398438 33.207031 -54.816406 33.417969 -51.652344 C 33.523438 -48.492188 32.679688 -46.066406 30.886719 -44.378906 C 32.574219 -43.957031 34.15625 -43.746094 35.628906 -43.746094 C 40.269531 -43.746094 44.0625 -45.328125 46.804688 -48.703125 C 49.546875 -52.074219 51.023438 -56.082031 51.128906 -60.71875 C 51.128906 -64.832031 50.179688 -67.992188 48.175781 -70.207031 C 46.171875 -72.316406 43.746094 -73.476562 40.902344 -73.476562 C 38.160156 -73.476562 35.523438 -72.527344 33.207031 -70.628906 C 30.886719 -68.730469 29.304688 -66.097656 28.460938 -62.828125 C 28.988281 -65.992188 29.621094 -69.046875 30.253906 -72 C 30.886719 -74.949219 31.308594 -77.058594 31.519531 -78.429688 C 31.730469 -79.800781 31.941406 -81.171875 31.941406 -82.4375 C 31.941406 -85.703125 30.78125 -88.128906 28.566406 -89.605469 C 26.25 -91.078125 23.507812 -91.921875 20.238281 -91.921875 C 17.710938 -91.921875 15.707031 -91.605469 14.230469 -91.183594 C 12.753906 -90.761719 10.753906 -89.816406 8.117188 -88.339844 C 10.015625 -86.652344 11.808594 -83.171875 13.492188 -78.007812 C 15.179688 -72.738281 16.128906 -67.78125 16.339844 -62.933594 C 13.386719 -63.355469 11.175781 -64.515625 9.699219 -66.203125 C 8.222656 -67.886719 6.429688 -70.628906 4.53125 -74.53125 C 0.84375 -70.734375 -1.054688 -66.625 -1.160156 -62.40625 C -1.371094 -56.503906 0.738281 -52.8125 4.953125 -51.441406 C 6.007812 -51.023438 6.957031 -50.917969 7.90625 -50.917969 C 10.121094 -50.917969 12.648438 -51.863281 15.390625 -53.761719 C 15.179688 -52.601562 14.441406 -48.070312 13.070312 -40.164062 C 11.597656 -32.152344 10.859375 -25.617188 10.648438 -20.554688 C 10.226562 -14.652344 11.175781 -9.804688 13.28125 -6.21875 C 16.128906 -1.160156 21.082031 1.371094 28.144531 1.371094 C 33.628906 1.371094 38.476562 -0.421875 42.589844 -4.109375 C 46.59375 -7.695312 48.703125 -12.332031 48.808594 -17.816406 Z M 48.808594 -17.816406 "/></g></g></g><g fill="#e76132" fill-opacity="1"><g transform="translate(105.058279, 238.21975)"><g><path d="M 28.355469 -23.296875 C 26.355469 -21.398438 24.457031 -20.554688 22.769531 -20.554688 C 21.609375 -20.554688 20.660156 -21.082031 19.816406 -22.136719 C 18.976562 -23.191406 18.449219 -24.667969 18.238281 -26.460938 C 17.5 -30.042969 17.921875 -35.210938 19.503906 -42.0625 C 20.34375 -45.855469 21.503906 -48.808594 22.769531 -50.707031 C 24.035156 -52.601562 25.828125 -53.550781 28.039062 -53.550781 C 30.359375 -53.550781 31.941406 -52.285156 32.785156 -49.96875 C 33.628906 -47.542969 33.523438 -44.589844 32.679688 -41.113281 C 38.160156 -41.113281 42.695312 -43.222656 46.277344 -47.542969 C 49.125 -51.128906 50.601562 -55.554688 50.601562 -60.613281 C 50.601562 -65.675781 48.914062 -69.679688 45.539062 -72.632812 C 43.222656 -74.53125 40.691406 -75.582031 38.054688 -75.582031 C 35.734375 -75.582031 33.734375 -75.054688 31.835938 -74.003906 C 29.9375 -72.949219 28.355469 -71.472656 26.988281 -69.574219 C 25.511719 -67.675781 24.351562 -65.886719 23.507812 -64.199219 C 22.558594 -62.511719 21.609375 -60.507812 20.765625 -58.191406 L 20.238281 -58.191406 C 20.660156 -61.773438 20.765625 -64.621094 20.765625 -66.730469 C 20.660156 -69.679688 19.816406 -71.894531 18.132812 -73.371094 C 16.445312 -74.847656 14.441406 -75.6875 11.910156 -75.6875 C 8.644531 -75.6875 5.480469 -74.425781 2.425781 -72 C 5.585938 -66.203125 7.484375 -60.71875 8.117188 -55.660156 C 8.75 -50.601562 8.222656 -42.90625 6.746094 -32.785156 C 6.535156 -31.625 6.324219 -30.042969 6.007812 -28.144531 C 5.691406 -26.144531 5.480469 -24.5625 5.269531 -23.402344 C 5.058594 -22.136719 4.953125 -20.765625 4.847656 -19.1875 C 4.636719 -17.5 4.636719 -16.023438 4.636719 -14.546875 C 4.847656 -3.902344 9.277344 1.371094 17.710938 1.371094 C 20.660156 1.371094 23.191406 0.632812 25.195312 -1.054688 C 27.09375 -2.636719 28.460938 -4.636719 29.199219 -7.0625 C 29.9375 -9.488281 30.253906 -12.226562 30.148438 -15.285156 C 30.148438 -17.921875 29.515625 -20.554688 28.355469 -23.296875 Z M 28.355469 -23.296875 "/></g></g></g><g fill="#e76132" fill-opacity="1"><g transform="translate(156.285249, 238.21975)"><g><path d="M 31.414062 -10.332031 L 31.835938 -10.332031 C 32.046875 -6.746094 33.101562 -3.902344 35 -1.792969 C 36.789062 0.316406 39.003906 1.371094 41.746094 1.371094 C 46.171875 1.476562 49.335938 0 51.335938 -3.058594 C 53.234375 -6.007812 54.289062 -10.015625 54.5 -14.863281 C 54.605469 -17.816406 54.078125 -20.554688 53.023438 -23.296875 C 50.917969 -21.398438 49.019531 -20.554688 47.332031 -20.554688 C 43.957031 -20.554688 42.167969 -24.457031 42.0625 -32.257812 C 42.0625 -33.945312 41.957031 -36.261719 41.957031 -39.109375 C 41.957031 -41.851562 41.957031 -44.167969 41.957031 -45.855469 C 41.957031 -47.542969 41.851562 -49.546875 41.746094 -51.96875 C 41.640625 -54.289062 41.535156 -56.1875 41.324219 -57.664062 C 41.113281 -59.140625 40.902344 -60.824219 40.480469 -62.722656 C 40.058594 -64.621094 39.636719 -66.097656 39.109375 -67.148438 C 38.476562 -68.203125 37.84375 -69.363281 37 -70.628906 C 36.15625 -71.894531 35.105469 -72.84375 34.050781 -73.476562 C 32.890625 -74.109375 31.519531 -74.636719 30.042969 -75.054688 C 28.460938 -75.476562 26.777344 -75.6875 24.878906 -75.6875 L 23.929688 -75.6875 C 19.714844 -75.476562 15.917969 -73.6875 12.648438 -70.207031 C 6.957031 -64.199219 3.375 -55.027344 1.792969 -42.695312 C 0.105469 -30.675781 0.949219 -20.238281 4.109375 -11.492188 C 7.273438 -2.636719 12.015625 1.582031 18.554688 1.371094 C 24.351562 1.265625 28.671875 -2.636719 31.414062 -10.332031 Z M 27.199219 -53.550781 C 30.570312 -53.550781 32.46875 -51.234375 32.785156 -46.804688 C 32.996094 -43.535156 32.046875 -39.847656 30.148438 -35.628906 C 28.144531 -31.414062 25.617188 -27.828125 22.664062 -24.878906 C 19.609375 -21.925781 16.867188 -20.554688 14.441406 -20.554688 C 10.964844 -20.554688 9.066406 -22.875 8.855469 -27.304688 C 8.644531 -30.253906 9.382812 -33.839844 11.070312 -37.949219 C 12.753906 -42.0625 15.074219 -45.644531 18.132812 -48.808594 C 21.082031 -51.96875 24.140625 -53.550781 27.199219 -53.550781 Z M 27.199219 -53.550781 "/></g></g></g><g fill="#e76132" fill-opacity="1"><g transform="translate(211.833834, 238.21975)"><g><path d="M -2.425781 -72 C 3.269531 -64.410156 6.535156 -56.398438 7.378906 -48.175781 C 7.695312 -43.957031 7.273438 -37.949219 6.007812 -30.148438 C 5.585938 -27.933594 5.375 -26.25 5.269531 -25.089844 C 5.058594 -23.929688 4.953125 -22.03125 4.742188 -19.503906 C 4.53125 -16.972656 4.53125 -14.863281 4.742188 -13.386719 C 4.953125 -11.808594 5.269531 -10.015625 5.796875 -7.90625 C 6.21875 -5.796875 6.957031 -4.109375 8.011719 -2.953125 C 8.960938 -1.6875 10.332031 -0.738281 12.015625 0.105469 C 13.703125 0.949219 15.707031 1.371094 18.027344 1.371094 C 25.089844 1.371094 31.414062 -2.847656 37.105469 -11.175781 C 41.324219 -17.5 44.273438 -25.828125 45.960938 -36.15625 C 46.277344 -38.265625 46.804688 -41.746094 47.542969 -46.804688 C 48.175781 -51.757812 48.703125 -55.449219 49.125 -57.769531 C 49.96875 -63.671875 50.285156 -67.042969 50.285156 -68.097656 C 49.863281 -73.054688 45.855469 -75.582031 38.265625 -75.582031 C 33.945312 -75.582031 29.726562 -74.320312 25.617188 -72 C 29.410156 -67.042969 32.152344 -62.40625 33.734375 -57.980469 C 35.628906 -52.179688 35.945312 -45.328125 34.789062 -37.316406 C 34.261719 -32.785156 32.996094 -28.882812 31.097656 -25.511719 C 29.09375 -22.136719 26.671875 -20.554688 23.824219 -20.554688 C 21.820312 -20.554688 20.34375 -21.714844 19.292969 -24.035156 C 18.132812 -26.671875 17.710938 -31.730469 18.132812 -39.320312 C 18.132812 -41.21875 18.34375 -43.117188 18.660156 -45.222656 C 18.976562 -47.332031 19.398438 -49.546875 19.921875 -52.074219 C 20.34375 -54.5 20.765625 -56.398438 20.976562 -57.769531 C 21.820312 -63.671875 22.136719 -67.042969 22.136719 -68.097656 C 21.609375 -73.054688 17.394531 -75.582031 9.59375 -75.582031 C 5.375 -75.582031 1.371094 -74.320312 -2.425781 -72 Z M -2.425781 -72 "/></g></g></g><g fill="#e76132" fill-opacity="1"><g transform="translate(264.325667, 238.21975)"><g><path d="M 21.714844 1.371094 C 26.777344 1.371094 30.886719 -0.949219 34.15625 -5.585938 C 37.210938 -10.015625 38.6875 -14.96875 38.476562 -20.449219 C 38.265625 -23.929688 37.316406 -26.777344 35.628906 -28.988281 C 33.839844 -31.097656 31.414062 -32.257812 28.460938 -32.257812 C 27.304688 -32.257812 26.460938 -32.152344 25.933594 -32.046875 C 25.828125 -29.09375 25.089844 -26.355469 23.613281 -24.035156 C 22.136719 -21.714844 20.027344 -20.554688 17.289062 -20.554688 C 16.445312 -20.554688 15.8125 -20.765625 15.285156 -21.082031 C 14.652344 -21.398438 14.230469 -21.925781 13.914062 -22.558594 C 13.597656 -23.191406 13.386719 -23.824219 13.175781 -24.457031 C 12.964844 -25.089844 12.753906 -25.828125 12.753906 -26.882812 C 12.753906 -27.828125 12.648438 -28.566406 12.648438 -29.199219 C 12.648438 -29.726562 12.648438 -30.464844 12.648438 -31.414062 C 12.648438 -32.363281 12.753906 -32.996094 12.753906 -33.3125 C 21.1875 -33.734375 27.933594 -36.15625 32.996094 -40.480469 C 38.054688 -44.800781 40.585938 -50.917969 40.585938 -58.824219 C 40.375 -63.566406 39.003906 -67.570312 36.472656 -70.734375 C 33.945312 -73.898438 30.359375 -75.582031 25.828125 -75.582031 C 21.292969 -75.582031 17.394531 -74.109375 14.125 -71.367188 C 10.859375 -68.519531 8.433594 -64.832031 6.851562 -60.402344 C 5.269531 -55.871094 4.109375 -51.441406 3.480469 -47.226562 C 2.742188 -43.011719 2.425781 -38.792969 2.425781 -34.578125 C 2.425781 -31.519531 2.53125 -28.671875 2.742188 -25.933594 C 2.953125 -23.191406 3.375 -20.027344 4.214844 -16.550781 C 5.058594 -12.964844 6.113281 -10.015625 7.378906 -7.484375 C 8.644531 -4.953125 10.542969 -2.847656 13.070312 -1.160156 C 15.496094 0.527344 18.34375 1.371094 21.714844 1.371094 Z M 25.933594 -53.550781 C 27.410156 -53.550781 28.460938 -53.128906 29.304688 -52.390625 C 30.042969 -51.652344 30.359375 -50.8125 30.359375 -49.757812 C 30.253906 -47.542969 29.09375 -45.75 26.882812 -44.273438 C 24.667969 -42.800781 22.347656 -41.851562 19.921875 -41.429688 C 17.5 -40.902344 15.179688 -40.691406 13.070312 -40.691406 C 13.492188 -44.0625 14.96875 -47.015625 17.394531 -49.652344 C 19.714844 -52.179688 22.558594 -53.550781 25.933594 -53.550781 Z M 25.933594 -53.550781 "/></g></g></g><g fill="#e76132" fill-opacity="1"><g transform="translate(307.014808, 238.21975)"><g><path d="M 0 -92.976562 C 5.164062 -85.703125 7.90625 -77.796875 8.117188 -69.152344 C 8.328125 -60.929688 7.589844 -50.917969 6.007812 -39.214844 C 4.109375 -26.144531 3.269531 -17.5 3.375 -13.28125 C 3.480469 -3.585938 7.800781 1.371094 16.445312 1.371094 C 20.976562 1.476562 24.457031 0 26.882812 -3.164062 C 29.304688 -6.324219 30.570312 -10.226562 30.78125 -14.863281 C 30.78125 -17.816406 30.253906 -20.554688 29.304688 -23.296875 C 27.199219 -21.398438 25.300781 -20.554688 23.507812 -20.554688 C 20.132812 -20.554688 18.449219 -24.457031 18.34375 -32.257812 C 18.238281 -37.632812 18.660156 -44.800781 19.609375 -53.65625 C 20.238281 -59.558594 21.082031 -65.78125 22.347656 -72.421875 C 23.824219 -81.488281 24.5625 -86.757812 24.351562 -88.234375 C 23.507812 -93.714844 19.609375 -96.5625 12.859375 -96.5625 C 10.226562 -96.5625 8.011719 -96.246094 6.324219 -95.824219 C 4.636719 -95.296875 2.53125 -94.347656 0 -92.976562 Z M 0 -92.976562 "/></g></g></g></svg>