<svg xmlns="http://www.w3.org/2000/svg" xmlns:xlink="http://www.w3.org/1999/xlink" width="500" zoomAndPan="magnify" viewBox="0 0 375 374.999991" height="500" preserveAspectRatio="xMidYMid meet" version="1.0"><defs><g/></defs><g fill="#dd7210" fill-opacity="0.4"><g transform="translate(123.133786, 257.016347)"><g><path d="M 39.015625 -76.683594 C 60.761719 -76.683594 72.421875 -95.964844 68.386719 -105.832031 C 63.453125 -105.832031 59.867188 -110.316406 59.867188 -116.367188 C 59.867188 -130.71875 75.785156 -143.5 102.242188 -143.5 C 130.046875 -143.5 137.222656 -131.839844 158.523438 -131.839844 C 182.738281 -131.839844 195.292969 -147.757812 195.292969 -165.023438 C 195.292969 -171.078125 193.277344 -174.21875 186.550781 -174.21875 C 180.945312 -174.21875 173.097656 -171.75 156.953125 -171.75 C 141.480469 -171.75 128.925781 -173.542969 104.933594 -173.542969 C 40.808594 -173.542969 10.988281 -139.6875 10.988281 -107.847656 C 10.988281 -91.480469 20.628906 -76.683594 39.015625 -76.683594 Z M 32.289062 9.417969 C 60.316406 9.417969 84.304688 -9.191406 101.347656 -50 C 109.640625 -69.730469 116.367188 -89.910156 123.992188 -113.679688 C 126.457031 -121.078125 123.542969 -125.785156 113.679688 -125.785156 C 106.953125 -125.785156 102.019531 -122.871094 99.105469 -115.023438 C 95.292969 -105.382812 91.03125 -93.945312 87.222656 -83.859375 C 76.457031 -56.503906 57.175781 -45.515625 43.273438 -45.515625 C 30.492188 -45.515625 21.972656 -52.242188 21.972656 -62.109375 C 21.972656 -63.679688 20.402344 -64.800781 18.609375 -64.800781 C 0.671875 -64.800781 -11.210938 -46.636719 -11.210938 -28.25 C -11.210938 -9.640625 1.121094 9.417969 32.289062 9.417969 Z M 32.289062 9.417969 "/></g></g></g><g fill="#dd7210" fill-opacity="1"><g transform="translate(113.223913, 247.106474)"><g><path d="M 39.015625 -76.683594 C 60.761719 -76.683594 72.421875 -95.964844 68.386719 -105.832031 C 63.453125 -105.832031 59.867188 -110.316406 59.867188 -116.367188 C 59.867188 -130.71875 75.785156 -143.5 102.242188 -143.5 C 130.046875 -143.5 137.222656 -131.839844 158.523438 -131.839844 C 182.738281 -131.839844 195.292969 -147.757812 195.292969 -165.023438 C 195.292969 -171.078125 193.277344 -174.21875 186.550781 -174.21875 C 180.945312 -174.21875 173.097656 -171.75 156.953125 -171.75 C 141.480469 -171.75 128.925781 -173.542969 104.933594 -173.542969 C 40.808594 -173.542969 10.988281 -139.6875 10.988281 -107.847656 C 10.988281 -91.480469 20.628906 -76.683594 39.015625 -76.683594 Z M 32.289062 9.417969 C 60.316406 9.417969 84.304688 -9.191406 101.347656 -50 C 109.640625 -69.730469 116.367188 -89.910156 123.992188 -113.679688 C 126.457031 -121.078125 123.542969 -125.785156 113.679688 -125.785156 C 106.953125 -125.785156 102.019531 -122.871094 99.105469 -115.023438 C 95.292969 -105.382812 91.03125 -93.945312 87.222656 -83.859375 C 76.457031 -56.503906 57.175781 -45.515625 43.273438 -45.515625 C 30.492188 -45.515625 21.972656 -52.242188 21.972656 -62.109375 C 21.972656 -63.679688 20.402344 -64.800781 18.609375 -64.800781 C 0.671875 -64.800781 -11.210938 -46.636719 -11.210938 -28.25 C -11.210938 -9.640625 1.121094 9.417969 32.289062 9.417969 Z M 32.289062 9.417969 "/></g></g></g></svg>